# xmcd
#
# Track frame offsets:
#	170
#	15037
#	27532
#	45830
#	58190
#	71805
#	88002
#	101910
#	116085
#	129835
#
# Disc length: 1887 seconds
#
# Revision: 0
# Processed by: cddbd v1.5.1PL0 Copyright (c) Steve Scherf et al.
# Submitted via: dBpowerAMP V4.0
#
DISCID=7e075d0a
DTITLE=Frank Michael - Les Plus Belles Chansons De Noel
DYEAR=1995
DGENRE=
TTITLE0=White Christmas
TTITLE1=Douce Nuit
TTITLE2=Petit Papa Noel
TTITLE3=Vive Le Vent
TTITLE4=Il Est Né Le Divin Enfant
TTITLE5=Minuit Chrétien
TTITLE6=Gloria Alleluia
TTITLE7=Mon Beau Sapin
TTITLE8=Les Anges Dans Nos Campagnes
TTITLE9=Joyeux Noel
EXTD=
EXTT0=
EXTT1=
EXTT2=
EXTT3=
EXTT4=
EXTT5=
EXTT6=
EXTT7=
EXTT8=
EXTT9=
PLAYORDER=
